<svg width="500" height="335" viewBox="0 0 500 335" fill="none" xmlns="http://www.w3.org/2000/svg">
<rect x="220.3" y="70.2773" width="268.566" height="264.184" fill="#1E4394"/>
<rect width="152.772" height="29.3782" transform="matrix(1 0 0 -1 237.005 70.2773)" fill="#C9E7F8"/>
<rect width="169.478" height="66.5149" transform="matrix(1 0 0 -1 220.3 136.793)" fill="#336DF2"/>
<rect width="44.1646" height="53.7103" transform="matrix(1 0 0 -1 227.771 136.793)" fill="#C9E7F8"/>
<rect width="51.4359" height="53.7103" transform="matrix(1 0 0 -1 279.351 136.793)" fill="#C9E7F8"/>
<rect width="47.1766" height="53.7103" transform="matrix(1 0 0 -1 335.038 136.793)" fill="#C9E7F8"/>
<rect width="169.478" height="53.7857" transform="matrix(1 0 0 -1 220.3 197.623)" fill="#336DF2"/>
<rect width="44.1646" height="46.1104" transform="matrix(1 0 0 -1 227.771 193.297)" fill="#C9E7F8"/>
<rect width="51.4359" height="46.1104" transform="matrix(1 0 0 -1 279.351 193.297)" fill="#C9E7F8"/>
<rect width="47.1766" height="46.1104" transform="matrix(1 0 0 -1 335.038 193.297)" fill="#C9E7F8"/>
<rect width="169.478" height="54.9981" transform="matrix(1 0 0 -1 220.3 259.67)" fill="#336DF2"/>
<rect width="44.1646" height="45.9859" transform="matrix(1 0 0 -1 227.771 254.082)" fill="#C9E7F8"/>
<rect width="51.4359" height="45.9859" transform="matrix(1 0 0 -1 279.351 254.082)" fill="#C9E7F8"/>
<rect width="47.1766" height="45.9859" transform="matrix(1 0 0 -1 335.038 254.082)" fill="#C9E7F8"/>
<rect x="468.837" y="70.2773" width="79.0599" height="29.3782" transform="rotate(180 468.837 70.2773)" fill="#336DF2"/>
<rect width="82.6579" height="51.562" transform="matrix(-1 0 0 1 481.43 83.0801)" fill="#336DF2"/>
<rect width="82.6579" height="45.8487" transform="matrix(-1 0 0 1 481.43 147.447)" fill="#336DF2"/>
<rect width="82.6579" height="45.8487" transform="matrix(-1 0 0 1 481.43 208.162)" fill="#336DF2"/>
<rect width="169.478" height="67.4079" transform="matrix(-1 0 0 1 389.777 267.053)" fill="#336DF2"/>
<rect width="150.648" height="64.0212" transform="matrix(-1 0 0 1 380.362 270.439)" fill="#C9E7F8"/>
<rect width="62.6822" height="40.0545" transform="matrix(-1 0 0 1 336.379 294.406)" fill="#336DF2"/>
<rect width="49.6531" height="33.704" transform="matrix(-1 0 0 1 329.004 300.756)" fill="white"/>
<path d="M480.468 318.186C476.84 320.747 468.997 322.633 465.528 323.255C436.716 323.255 434.581 306.181 433.781 289.64C432.981 273.1 443.919 254.691 469.797 253.357C495.675 252.023 497.276 277.368 499.143 282.971C501.011 288.573 495.142 299.244 490.873 307.782C486.604 316.319 485.004 314.985 480.468 318.186Z" fill="#F7D257"/>
<path d="M464.994 278.436V334.46" stroke="black" stroke-width="2.28623"/>
<rect x="207.546" y="236.52" width="92.9611" height="97.9411" fill="#2C68F6"/>
<path d="M153.043 154.625H249.048L311.022 236.519H88.5791L153.043 154.625Z" fill="#1E4394"/>
<path d="M98.5399 236.519L153.044 163.479L207.548 236.519V334.46H98.5399V236.519Z" fill="#C8EBFD"/>
<path d="M129.31 242.603C129.31 230.666 138.986 220.99 150.922 220.99C162.858 220.99 172.534 230.666 172.534 242.603V295.089H129.31V242.603Z" fill="#1E4394"/>
<path d="M131.793 241.361C131.793 230.11 140.913 220.99 152.164 220.99C163.414 220.99 172.534 230.11 172.534 241.361V295.089H131.793V241.361Z" fill="white"/>
<path d="M172.466 252.807H129.391" stroke="#1E4394" stroke-width="3.79107"/>
<path d="M150.922 295.09L150.922 252.807" stroke="#1E4394" stroke-width="3.79107"/>
<path d="M0.318329 268.848C-0.837855 255.899 12.3619 247.073 19.1064 244.279C0.896688 219.71 26.6214 200.344 32.4022 200.344C45.6981 198.61 58.9944 201.789 70.8452 212.484C82.6961 223.179 79.8056 237.342 70.8452 246.88C90.2112 254.974 92.8126 270.293 92.8126 272.605C96.2812 300.932 61.3067 305.556 45.1202 305.846C9.85674 302.955 1.76356 285.034 0.318329 268.848Z" fill="#336DF2"/>
<path d="M45.4099 334.46V265.668" stroke="black" stroke-width="2.22573"/>
<path d="M80.2311 334.461H99.2058C103.214 317.357 105.887 294.373 99.2058 292.503C93.8607 291.006 90.3866 308.448 89.3177 317.357C87.4469 306.489 81.8881 286.302 74.6189 292.503C67.3497 298.703 75.3315 323.058 80.2311 334.461Z" fill="#F7D257"/>
<path d="M142.637 51.7476H56.8145C58.0003 41.8579 64.7181 22.0034 82.1023 21.7036C103.832 21.329 104.582 33.6927 112.45 38.938C129.234 37.1396 139.568 46.7284 142.637 51.7476Z" fill="#E2F5FD"/>
<path d="M250.459 122.705H164.637C165.823 112.815 172.54 92.9604 189.925 92.6607C211.655 92.286 212.404 104.65 220.272 109.895C237.057 108.097 247.39 117.685 250.459 122.705Z" fill="#E2F5FD"/>
<path d="M382.215 12.9096H346.865C347.354 8.83606 350.121 0.658136 357.281 0.534681C366.232 0.380361 366.54 5.4729 369.781 7.63338C376.694 6.89265 380.951 10.8422 382.215 12.9096Z" fill="#E2F5FD"/>
</svg>
