<svg width="124" height="125" viewBox="0 0 124 125" fill="none" xmlns="http://www.w3.org/2000/svg">
<g id="speech-bubble">
<g id="Dark tone">
<path fill-rule="evenodd" clip-rule="evenodd" d="M9.6875 25.6875C9.6875 21.4073 13.1573 17.9375 17.4375 17.9375H106.562C110.843 17.9375 114.312 21.4073 114.312 25.6875V85.75C114.312 90.0302 110.843 93.5 106.562 93.5H102.687L102.688 103.188C102.688 103.199 102.687 103.21 102.687 103.222C102.674 106.592 100.717 109.08 98.166 110.235C97.6795 110.458 97.1659 110.633 96.6315 110.752C95.8953 110.92 95.1348 110.985 94.3767 110.938H90.3639C87.1053 110.938 83.9963 109.57 81.7944 107.168L69.2656 93.5H17.4375C13.1573 93.5 9.6875 90.0302 9.6875 85.75V25.6875Z" fill="#091525"/>
<path d="M14.6234 104.424C15.3012 102.775 17.6363 102.775 18.3141 104.424L19.6397 107.649C19.8423 108.141 20.2336 108.533 20.7264 108.735L23.9509 110.061C25.5997 110.739 25.5997 113.074 23.9509 113.752L20.7264 115.077C20.2336 115.28 19.8423 115.671 19.6397 116.164L18.3141 119.388C17.6363 121.037 15.3012 121.037 14.6234 119.388L13.2978 116.164C13.0952 115.671 12.7039 115.28 12.2111 115.077L8.98658 113.752C7.33781 113.074 7.33781 110.739 8.98658 110.061L12.2111 108.735C12.7039 108.533 13.0952 108.141 13.2978 107.649L14.6234 104.424Z" fill="#091525"/>
<path d="M117.266 102.517C117.96 100.828 120.352 100.828 121.047 102.517L121.214 102.923C121.421 103.428 121.822 103.829 122.327 104.036L122.733 104.203C124.422 104.898 124.422 107.29 122.733 107.984L122.327 108.151C121.822 108.359 121.421 108.76 121.214 109.264L121.047 109.671C120.352 111.36 117.96 111.36 117.266 109.671L117.099 109.264C116.891 108.76 116.49 108.359 115.986 108.151L115.579 107.984C113.89 107.29 113.89 104.898 115.579 104.203L115.986 104.036C116.49 103.829 116.891 103.428 117.099 102.923L117.266 102.517Z" fill="#091525"/>
<path d="M113.42 3.68468C114.104 2.02177 116.459 2.02177 117.142 3.68468L117.893 5.51083C118.097 6.00788 118.492 6.40255 118.989 6.60688L120.815 7.35759C122.478 8.0412 122.478 10.3963 120.815 11.0799L118.989 11.8306C118.492 12.035 118.097 12.4296 117.893 12.9267L117.142 14.7528C116.459 16.4157 114.104 16.4157 113.42 14.7528L112.669 12.9267C112.465 12.4296 112.07 12.035 111.573 11.8306L109.747 11.0799C108.084 10.3963 108.084 8.0412 109.747 7.35759L111.573 6.60688C112.07 6.40255 112.465 6.00788 112.669 5.51082L113.42 3.68468Z" fill="#091525"/>
</g>
<path id="Mid tone" fill-rule="evenodd" clip-rule="evenodd" d="M79.9219 89.625L91.8375 105.513C94.0718 108.492 98.8125 106.911 98.8125 103.188V89.625H106.562C108.703 89.625 110.438 87.8901 110.438 85.75V25.6875C110.438 23.5474 108.703 21.8125 106.562 21.8125H31C28.8599 21.8125 27.125 23.5474 27.125 25.6875V85.75C27.125 87.8901 28.8599 89.625 31 89.625H79.9219ZM47.4688 64.4375C52.284 64.4375 56.1875 60.534 56.1875 55.7188C56.1875 50.9035 52.284 47 47.4688 47C42.6535 47 38.75 50.9035 38.75 55.7188C38.75 60.534 42.6535 64.4375 47.4688 64.4375ZM77.5 55.7188C77.5 60.534 73.5965 64.4375 68.7812 64.4375C63.966 64.4375 60.0625 60.534 60.0625 55.7188C60.0625 50.9035 63.966 47 68.7812 47C73.5965 47 77.5 50.9035 77.5 55.7188ZM90.0938 64.4375C94.909 64.4375 98.8125 60.534 98.8125 55.7188C98.8125 50.9035 94.909 47 90.0938 47C85.2785 47 81.375 50.9035 81.375 55.7188C81.375 60.534 85.2785 64.4375 90.0938 64.4375Z" fill="#CEB6FF"/>
<g id="Light tone">
<path d="M52.3125 55.7188C52.3125 58.3939 50.1439 60.5625 47.4688 60.5625C44.7936 60.5625 42.625 58.3939 42.625 55.7188C42.625 53.0436 44.7936 50.875 47.4688 50.875C50.1439 50.875 52.3125 53.0436 52.3125 55.7188Z" fill="#CEB6FF"/>
<path d="M73.625 55.7188C73.625 58.3939 71.4564 60.5625 68.7812 60.5625C66.1061 60.5625 63.9375 58.3939 63.9375 55.7188C63.9375 53.0436 66.1061 50.875 68.7812 50.875C71.4564 50.875 73.625 53.0436 73.625 55.7188Z" fill="#CEB6FF"/>
<path d="M94.9375 55.7188C94.9375 58.3939 92.7689 60.5625 90.0938 60.5625C87.4186 60.5625 85.25 58.3939 85.25 55.7188C85.25 53.0436 87.4186 50.875 90.0938 50.875C92.7689 50.875 94.9375 53.0436 94.9375 55.7188Z" fill="#CEB6FF"/>
</g>
</g>
</svg>
