<svg width="520" height="287" viewBox="0 0 520 287" fill="none" xmlns="http://www.w3.org/2000/svg">
<g clip-path="url(#clip0_8422_2)">
<path d="M93.0296 73.7847C93.0296 52.0406 93.0296 30.3924 93.0296 8.80816C94.7097 8.29692 128.962 8.1691 131.736 8.61645C131.736 65.5568 131.736 122.513 131.736 179.613C118.913 179.613 106.106 179.613 93.0455 179.613C93.0455 156.958 93.0455 134.4 93.0455 111.697C75.1347 111.697 57.5093 111.697 39.6302 111.697C39.2815 113.902 39.5193 116.17 39.4717 118.423C39.4242 120.644 39.4559 122.849 39.4559 125.069C39.4559 127.354 39.4559 129.639 39.4559 131.939C39.4559 134.24 39.4559 136.508 39.4559 138.809C39.4559 141.11 39.4559 143.378 39.4559 145.679C39.4559 147.9 39.4559 150.12 39.4559 152.325C39.4559 154.61 39.4559 156.895 39.4559 159.195C39.4559 161.496 39.4559 163.764 39.4559 166.065C39.4559 168.286 39.4559 170.507 39.4559 172.711C39.4559 174.98 39.4559 177.249 39.4559 179.661C26.5221 179.661 13.7785 179.661 1.06663 179.661C0.987377 179.597 0.923976 179.565 0.876425 179.517C0.828875 179.469 0.781324 179.405 0.781324 179.342C0.717923 123.184 0.670372 67.0426 0.638672 10.9171C0.638672 10.278 0.670372 9.63894 0.717923 8.98391C0.733773 8.85609 0.844725 8.74426 1.00323 8.50461C13.6676 8.50461 26.4111 8.50461 39.3925 8.50461C39.3925 30.2487 39.3925 51.9448 39.3925 73.561C41.0726 74.1202 89.6535 74.2959 93.0296 73.7847Z" fill="#075F26"/>
<path d="M513.299 154.648C510.319 158.946 506.896 162.62 502.996 165.863C494.818 172.653 485.419 176.664 475.021 178.533C468.839 179.635 462.626 180.035 456.381 179.715C440.753 178.932 426.44 174.411 414.362 163.978C403.917 154.951 397.608 143.48 394.676 130.012C393.123 122.903 392.742 115.665 393.487 108.476C395.786 86.572 405.93 69.6209 425.315 58.8048C432.59 54.7467 440.451 52.4461 448.694 51.5195C458.885 50.3692 468.95 50.8964 478.682 54.4432C497.734 61.377 510.081 74.8771 516.263 94.1608C519.259 103.523 519.94 113.189 518.973 122.95C518.752 125.219 518.482 127.472 518.213 129.964C489.334 129.964 460.645 129.964 431.655 129.964C432.051 131.003 432.289 131.738 432.606 132.425C435.585 138.703 440.451 142.921 446.966 144.982C455.858 147.778 464.813 147.89 473.689 144.758C477.383 143.448 479.205 142.282 484.325 138.144C493.883 143.592 503.535 149.088 513.299 154.648ZM483.168 102.453C483.168 102.261 483.215 102.037 483.168 101.846C480.996 94.3365 476.764 88.5371 469.521 85.3098C464.005 82.8494 458.22 82.3542 452.26 83.1849C441.07 84.7347 434.096 91.6685 431.163 101.398C431.052 101.766 431.052 102.181 431.005 102.564C433.763 102.98 481.614 102.868 483.168 102.453Z" fill="#075F26"/>
<path d="M297.88 103.16C287.735 93.2542 277.718 83.4606 267.526 73.4912C274.691 65.8864 281.76 58.3934 288.892 50.8206C292.538 50.6608 296.199 50.4531 299.877 50.3253C310.576 49.9738 321.29 49.6702 331.989 49.3188C337.236 49.143 342.466 48.8714 347.713 48.6637C348.981 48.6158 350.265 48.6637 351.659 48.6637C362.041 56.4762 372.487 64.3367 383.011 72.2451C383.502 91.5287 383.994 110.796 384.485 130.575C364.736 112.618 345.383 95.0116 325.839 77.2138C316.519 85.8571 307.263 94.4524 297.88 103.16Z" fill="#075F26"/>
<path d="M142.657 144.784C142.657 125.916 142.657 107.208 142.657 88.2115C161.392 106.696 179.921 125.005 198.688 143.522C208.008 134.879 217.264 126.284 226.663 117.576C235.825 126.667 244.923 135.694 254.053 144.752C247.871 153.492 241.8 162.103 235.555 170.922C214.807 171.321 193.964 171.737 172.979 172.152C162.914 163.046 152.817 153.939 142.657 144.784Z" fill="#075F26"/>
<path d="M262.388 152.445C272.96 161.855 283.532 171.249 294.215 180.755C299.034 180.483 303.884 180.196 308.718 179.924C309.178 181.729 309.368 229.355 308.956 234.452C293.518 251.85 277.969 269.361 262.451 286.855C262.293 286.823 262.214 286.823 262.166 286.807C262.118 286.775 262.039 286.711 262.039 286.663C262.008 286.168 261.96 285.673 261.96 285.177C261.96 241.002 261.96 196.843 261.96 152.668C262.087 152.572 262.229 152.508 262.388 152.445Z" fill="#075F26"/>
<path d="M364.508 30.3649C365.872 25.3642 367.219 20.3796 368.582 15.3789C369.945 10.3783 371.292 5.36165 372.671 0.297089C375.191 0.297089 377.585 0.297089 380.168 0.297089C383.053 10.2664 385.51 20.3955 388.728 30.3809C391.596 20.3955 393.847 10.3144 396.399 0.297089C399.633 0.297089 402.66 0.297089 405.687 0.297089C405.751 1.87876 395.226 41.2769 394.132 43.5775C390.772 43.5775 387.38 43.5775 383.687 43.5775C381.389 35.1579 379.075 26.6903 376.761 18.2068C376.586 18.2068 376.428 18.1908 376.253 18.1908C374.779 22.2808 373.876 26.5465 372.703 30.7324C371.514 34.9821 370.373 39.2319 369.184 43.5455C365.634 43.5455 362.194 43.5455 358.469 43.5455C354.602 29.2465 350.735 14.9156 346.804 0.376971C350.116 0.376971 353.128 0.376971 356.457 0.376971C359.024 10.2185 361.243 20.3476 363.827 30.3649C364.08 30.3489 364.287 30.3649 364.508 30.3649Z" fill="#369C13"/>
<path d="M280.678 43.5571C278.427 43.5571 276.319 43.5571 274.1 43.5571C268.616 35.7126 263.132 27.8362 257.378 19.5923C256.696 22.0048 257.061 23.9699 256.998 25.8871C256.934 27.8203 256.982 29.7534 256.982 31.6706C256.982 33.6677 256.982 35.6807 256.982 37.6778C256.982 39.5949 256.982 41.4961 256.982 43.5092C253.859 43.5092 250.974 43.5092 247.963 43.5092C247.963 29.1143 247.963 14.7834 247.963 0.324662C250.182 0.324662 252.338 0.324662 254.747 0.324662C260.247 7.94546 265.525 15.9177 271.12 23.6664C271.31 23.5865 271.485 23.5226 271.675 23.4427C271.675 15.758 271.675 8.08925 271.675 0.308685C274.797 0.308685 277.666 0.308685 280.535 0.308685C280.979 1.87438 281.122 40.5376 280.678 43.5571Z" fill="#369C13"/>
<path d="M471.976 0.219971C474.797 0.219971 477.492 0.219971 480.17 0.219971C482.865 0.219971 485.559 0.219971 488.254 0.219971C499.317 0.251924 506.624 7.53722 508.732 16.5C510.952 25.9262 507.163 35.9275 499.222 40.6885C495.957 42.6376 492.391 43.4844 488.682 43.5962C483.372 43.756 478.046 43.6282 472.721 43.6282C472.515 43.6282 472.309 43.5643 471.96 43.5004C471.976 29.1694 471.976 14.8385 471.976 0.219971ZM481.438 34.4417C484.434 34.4417 487.335 34.6653 490.219 34.3937C495.165 33.9304 498.858 30.6552 499.888 25.8463C500.332 23.7853 500.49 21.5806 500.237 19.4877C499.666 14.7586 496.75 10.7165 491.551 9.67807C488.175 9.00706 484.799 9.4544 481.486 9.37452C480.884 11.1958 480.836 32.3008 481.438 34.4417Z" fill="#369C13"/>
<path d="M172.643 27.7279C175.607 32.9842 178.539 38.1766 181.567 43.5447C178.143 43.5447 174.989 43.5447 171.708 43.5447C169.013 38.7997 166.319 34.0227 163.593 29.2138C161.976 29.2138 160.439 29.2138 158.679 29.2138C158.394 31.6262 158.568 33.9588 158.537 36.2754C158.505 38.6239 158.537 40.9725 158.537 43.4808C155.398 43.4808 152.387 43.4808 149.232 43.4808C149.232 29.1658 149.232 14.8349 149.232 0.376146C149.597 0.328216 150.009 0.216381 150.405 0.216381C155.652 0.200404 160.914 0.104545 166.16 0.232357C174.022 0.440052 179.554 6.14367 180.362 13.0295C181.044 18.6852 178.92 23.0308 174.514 26.4019C173.975 26.8173 173.388 27.2167 172.643 27.7279ZM158.663 20.7941C161.611 20.7941 164.29 20.858 166.969 20.7622C168.411 20.7143 169.473 19.7876 170.218 18.6054C171.55 16.5124 171.629 14.2917 170.583 12.0869C169.568 9.89815 167.666 9.06737 165.4 9.01944C163.624 8.97151 161.849 8.98749 160.09 9.01944C159.63 9.03542 159.171 9.21116 158.663 9.323C158.663 13.1414 158.663 16.816 158.663 20.7941Z" fill="#369C13"/>
<path d="M225.714 17.1624C225.714 20.3417 225.714 23.1056 225.714 26.0932C220.69 26.0932 215.76 26.0932 210.657 26.0932C210.657 28.9211 210.657 31.5253 210.657 34.3371C216.188 34.6726 221.704 34.3371 227.49 34.5288C227.585 37.5165 227.569 40.4561 227.49 43.5076C218.645 43.5076 209.959 43.5076 201.146 43.5076C201.146 29.1128 201.146 14.7819 201.146 0.32312C209.737 0.32312 218.281 0.32312 227.093 0.32312C227.109 1.77698 227.141 3.24682 227.157 4.70069C227.173 6.1226 227.157 7.54451 227.157 9.26997C225.223 9.28595 223.416 9.30192 221.609 9.30192C219.834 9.30192 218.059 9.30192 216.299 9.30192C214.477 9.30192 212.638 9.30192 210.657 9.30192C210.657 11.986 210.657 14.4304 210.657 17.1304C215.681 17.1624 220.611 17.1624 225.714 17.1624Z" fill="#369C13"/>
<path d="M312.439 26.074C312.439 29.0296 312.439 31.5699 312.439 34.1741C314.341 34.7812 316.179 34.4137 317.986 34.4776C319.825 34.5415 321.679 34.4936 323.518 34.4936C325.357 34.4936 327.195 34.4936 328.986 34.4936C329.557 36.1072 329.62 41.2996 329.129 43.5203C320.602 43.5203 312.043 43.5203 303.499 43.5203C303.071 41.9546 302.881 5.03289 303.277 0.543484C304.767 0.128095 326.514 0.0322358 329.177 0.447625C329.177 3.3234 329.177 6.21515 329.177 9.3785C323.613 9.3785 318.113 9.3785 312.47 9.3785C312.47 12.0306 312.47 14.4271 312.47 17.0952C317.4 17.5265 322.345 17.0632 327.243 17.3508C327.718 18.8366 327.813 23.1023 327.417 26.074C322.535 26.074 317.606 26.074 312.439 26.074Z" fill="#369C13"/>
<path d="M451.069 0.32312C451.069 3.32671 451.069 6.20248 451.069 9.3179C445.584 9.3179 440.227 9.3179 434.584 9.3179C434.378 11.97 434.458 14.4144 434.537 17.0665C439.609 17.5139 444.554 17.0505 449.785 17.3541C449.816 20.1979 449.816 23.0098 449.769 26.0773C444.681 26.0773 439.767 26.0773 434.537 26.0773C434.41 28.9051 434.442 31.5093 434.505 34.3531C440.148 34.6886 445.664 34.3371 451.465 34.5608C451.592 37.5165 451.544 40.4561 451.497 43.5236C442.763 43.5236 434.204 43.5236 425.375 43.5236C425.074 38.7946 425.28 34.0336 425.249 29.3045C425.217 24.4477 425.233 19.5908 425.233 14.7339C425.233 9.97294 425.233 5.21193 425.233 0.339097C433.998 0.32312 442.478 0.32312 451.069 0.32312Z" fill="#369C13"/>
<path d="M198.26 82.0917C188.702 90.5433 179.303 98.883 169.777 107.303C160.568 98.196 151.47 89.2013 142.324 80.1426C150.582 71.2916 158.745 62.5524 167.066 53.6375C167.748 53.6375 168.509 53.6375 169.285 53.6375C189.082 53.6375 208.879 53.6535 228.676 53.6056C230.309 53.6056 231.498 54.1328 232.67 55.1873C246.428 67.4572 260.186 79.7112 273.96 91.9652C288.432 104.826 302.903 117.687 317.374 130.548C319.767 132.673 322.161 134.766 324.792 137.083C333.874 128.024 342.893 119.045 351.88 110.083C353.386 110.658 378.334 131.108 382.471 135.134C373.753 144.816 365.052 154.481 356.477 164.003C353.307 164.227 350.406 164.451 347.521 164.61C343.622 164.818 339.739 164.914 335.84 165.154C329.975 165.505 324.11 165.952 318.246 166.32C315.282 166.512 312.302 166.623 309.338 166.783C304.821 167.039 300.288 167.326 295.77 167.598C295.342 167.63 294.93 167.598 294.375 167.598C262.39 139.192 230.404 110.706 198.26 82.0917Z" fill="#419B00"/>
</g>
<defs>
<clipPath id="clip0_8422_2">
<rect width="518.73" height="286.667" fill="white" transform="translate(0.637695 0.166687)"/>
</clipPath>
</defs>
</svg>
